<svg width="38" height="38" viewBox="0 0 38 38" fill="none" xmlns="http://www.w3.org/2000/svg">
<path d="M19.0001 5.00293C21.2831 5.00293 23.4727 5.90931 25.0878 7.52292C26.7029 9.13652 27.6113 11.3253 27.6134 13.6083V24.8421C27.6122 25.0359 27.5537 25.225 27.4452 25.3856C27.3367 25.5462 27.1832 25.6711 27.0038 25.7446C21.8678 27.8097 16.1323 27.8097 10.9963 25.7446C10.817 25.6711 10.6634 25.5462 10.5549 25.3856C10.4464 25.225 10.3879 25.0359 10.3867 24.8421V13.6083C10.3888 11.3253 11.2972 9.13652 12.9123 7.52292C14.5274 5.90931 16.717 5.00293 19.0001 5.00293Z" fill="#A86C4D"/>
<path d="M19.0001 5.00293C16.717 5.00293 14.5274 5.90931 12.9123 7.52292C11.2972 9.13652 10.3888 11.3253 10.3867 13.6083V15.9833C10.3867 13.6989 11.2942 11.5081 12.9095 9.8928C14.5248 8.27749 16.7157 7.37001 19.0001 7.37001C21.2845 7.37001 23.4753 8.27749 25.0906 9.8928C26.7059 11.5081 27.6134 13.6989 27.6134 15.9833V13.6083C27.6113 11.3253 26.7029 9.13652 25.0878 7.52292C23.4727 5.90931 21.2831 5.00293 19.0001 5.00293Z" fill="#DE926A"/>
<path d="M19.0001 5.00293C21.2831 5.00293 23.4727 5.90931 25.0878 7.52292C26.7029 9.13652 27.6113 11.3253 27.6134 13.6083V24.8421C27.6122 25.0359 27.5537 25.225 27.4452 25.3856C27.3367 25.5462 27.1832 25.6711 27.0038 25.7446C21.8678 27.8097 16.1323 27.8097 10.9963 25.7446C10.817 25.6711 10.6634 25.5462 10.5549 25.3856C10.4464 25.225 10.3879 25.0359 10.3867 24.8421V13.6083C10.3888 11.3253 11.2972 9.13652 12.9123 7.52292C14.5274 5.90931 16.717 5.00293 19.0001 5.00293Z" stroke="#45413C" stroke-width="0.703704" stroke-linecap="round" stroke-linejoin="round"/>
<path opacity="0.15" d="M7.125 36.021C7.125 36.3359 8.37611 36.638 10.6031 36.8607C12.8301 37.0834 15.8506 37.2085 19 37.2085C22.1494 37.2085 25.1699 37.0834 27.3969 36.8607C29.6239 36.638 30.875 36.3359 30.875 36.021C30.875 35.7061 29.6239 35.404 27.3969 35.1813C25.1699 34.9586 22.1494 34.8335 19 34.8335C15.8506 34.8335 12.8301 34.9586 10.6031 35.1813C8.37611 35.404 7.125 35.7061 7.125 36.021Z" fill="#45413C"/>
<path d="M18.9988 24.7178C21.4931 24.7178 23.8853 25.7087 25.6491 27.4724C27.4129 29.2362 28.4038 31.6284 28.4038 34.1228V35.6269H9.59375V34.1228C9.59375 31.6284 10.5846 29.2362 12.3484 27.4724C14.1122 25.7087 16.5044 24.7178 18.9988 24.7178Z" fill="white"/>
<path d="M18.9988 24.7178C16.5044 24.7178 14.1122 25.7087 12.3484 27.4724C10.5846 29.2362 9.59375 31.6284 9.59375 34.1228V35.6269H9.64125C9.85609 33.2937 10.9348 31.1249 12.666 29.5459C14.3971 27.9668 16.6556 27.0915 18.9988 27.0915C21.3419 27.0915 23.6004 27.9668 25.3315 29.5459C27.0627 31.1249 28.1414 33.2937 28.3563 35.6269H28.4038V34.1228C28.4038 31.6284 27.4129 29.2362 25.6491 27.4724C23.8853 25.7087 21.4931 24.7178 18.9988 24.7178Z" fill="#E0E0E0"/>
<path d="M18.9988 24.7178C21.4931 24.7178 23.8853 25.7087 25.6491 27.4724C27.4129 29.2362 28.4038 31.6284 28.4038 34.1228V35.6269H9.59375V34.1228C9.59375 31.6284 10.5846 29.2362 12.3484 27.4724C14.1122 25.7087 16.5044 24.7178 18.9988 24.7178Z" stroke="#45413C" stroke-width="0.703704" stroke-linecap="round" stroke-linejoin="round"/>
<path d="M24.2796 26.3363C24.2796 26.3363 22.7675 24.0801 18.9992 24.0801C15.2308 24.0801 13.7188 26.3363 13.7188 26.3363L15.3021 27.8009L14.6925 30.0413L18.9992 33.5167L23.2979 30.0413L22.6883 27.8009L24.2796 26.3363Z" fill="#F0F0F0" stroke="#45413C" stroke-width="0.703704" stroke-linecap="round" stroke-linejoin="round"/>
<path d="M21.01 25.7842V27.225C21.0073 27.9531 20.8218 28.6688 20.4704 29.3065C20.1191 29.9442 19.6132 30.4834 18.9991 30.8746C18.3806 30.4805 17.8718 29.9363 17.5202 29.2926C17.1686 28.6489 16.9857 27.9268 16.9883 27.1933V25.7842H21.01Z" fill="#00DBA8" stroke="#45413C" stroke-width="0.703704" stroke-linecap="round" stroke-linejoin="round"/>
<path d="M16.9883 21.5068H21.0179V27.7927H16.9883V21.5068Z" fill="#FFCEBF"/>
<path d="M18.9991 21.5068C18.4658 21.5068 17.9543 21.7187 17.5772 22.0958C17.2001 22.4729 16.9883 22.9844 16.9883 23.5177V23.9927C16.9883 24.526 17.2001 25.0374 17.5772 25.4145C17.9543 25.7916 18.4658 26.0035 18.9991 26.0035C19.5324 26.0035 20.0439 25.7916 20.421 25.4145C20.7981 25.0374 21.0099 24.526 21.0099 23.9927V23.5256C21.011 23.2609 20.9597 22.9985 20.8592 22.7536C20.7586 22.5088 20.6106 22.2862 20.4238 22.0986C20.237 21.911 20.0149 21.7622 19.7705 21.6607C19.526 21.5591 19.2638 21.5068 18.9991 21.5068Z" fill="#FFB59E"/>
<path d="M13.5078 35.6223V33.7143M24.4961 35.6223V33.7143M19.002 30.9039V35.6223M16.9911 21.5068H21.0207V27.7927H16.9911V21.5068Z" stroke="#45413C" stroke-width="0.703704" stroke-linecap="round" stroke-linejoin="round"/>
<path d="M27.6055 22.9585H31.3501V35.3718C31.3417 35.8618 31.1412 36.329 30.7918 36.6725C30.4423 37.0161 29.9718 37.2086 29.4817 37.2085C28.9862 37.2085 28.511 37.0117 28.1606 36.6613C27.8102 36.3109 27.6134 35.8357 27.6134 35.3402V22.9585H27.6055Z" fill="#80DDFF"/>
<path d="M31.3501 23.3433L27.6055 28.7108V35.3766C27.6364 35.8521 27.8471 36.298 28.1948 36.6239C28.5426 36.9497 29.0012 37.131 29.4778 37.131C29.9543 37.131 30.413 36.9497 30.7607 36.6239C31.1084 36.298 31.3191 35.8521 31.3501 35.3766V23.3433Z" fill="#B8ECFF"/>
<path d="M27.6055 22.9585H31.3501V35.3718C31.3417 35.8618 31.1412 36.329 30.7918 36.6725C30.4423 37.0161 29.9718 37.2086 29.4817 37.2085C28.9862 37.2085 28.511 37.0117 28.1606 36.6613C27.8102 36.3109 27.6134 35.8357 27.6134 35.3402V22.9585H27.6055Z" stroke="#45413C" stroke-width="0.703704" stroke-linecap="round" stroke-linejoin="round"/>
<path d="M27.6055 25.916H31.3501V35.3685C31.3417 35.8585 31.1412 36.3256 30.7918 36.6692C30.4423 37.0128 29.9718 37.2053 29.4817 37.2052C28.9862 37.2052 28.511 37.0083 28.1606 36.658C27.8102 36.3076 27.6134 35.8324 27.6134 35.3368V25.916H27.6055Z" fill="#FF6196"/>
<path d="M27.6055 28.7027V35.3685C27.6364 35.844 27.8471 36.29 28.1948 36.6158C28.5426 36.9416 29.0012 37.123 29.4778 37.123C29.9543 37.123 30.413 36.9416 30.7607 36.6158C31.1084 36.29 31.3191 35.844 31.3501 35.3685V25.916H29.553L27.6055 28.7027Z" fill="#FF87AF"/>
<path d="M27.6055 25.916H31.3501V35.3685C31.3417 35.8585 31.1412 36.3256 30.7918 36.6692C30.4423 37.0128 29.9718 37.2053 29.4817 37.2052C28.9862 37.2052 28.511 37.0083 28.1606 36.658C27.8102 36.3076 27.6134 35.8324 27.6134 35.3368V25.916H27.6055Z" stroke="#45413C" stroke-width="0.703704" stroke-linecap="round" stroke-linejoin="round"/>
<path d="M26.9961 21.4302H31.9598V22.9502H26.9961V21.4302Z" fill="#80DDFF" stroke="#45413C" stroke-width="0.703704" stroke-linecap="round" stroke-linejoin="round"/>
<path d="M29.6328 28.8521H33.0607V30.6808H29.6328V28.8521Z" fill="#00DBA8"/>
<path d="M30.5511 29.7625H32.1345C32.2951 29.7631 32.4527 29.8058 32.5916 29.8864C32.7305 29.967 32.8459 30.0826 32.9261 30.2216C33.0084 30.0825 33.0521 29.9241 33.0528 29.7625C33.0507 29.5203 32.953 29.2887 32.7811 29.1182C32.6091 28.9477 32.3767 28.852 32.1345 28.8521H30.5511C30.309 28.852 30.0766 28.9477 29.9046 29.1182C29.7326 29.2887 29.6349 29.5203 29.6328 29.7625C29.6335 29.9241 29.6773 30.0825 29.7595 30.2216C29.8398 30.0826 29.9551 29.967 30.094 29.8864C30.2329 29.8058 30.3906 29.7631 30.5511 29.7625Z" fill="#00F5BC"/>
<path d="M29.6328 28.8521H33.0607V30.6808H29.6328V28.8521Z" stroke="#45413C" stroke-width="0.703704" stroke-linecap="round" stroke-linejoin="round"/>
<path d="M29.6328 30.6772H33.0607V32.506H29.6328V30.6772Z" fill="#00DBA8" stroke="#45413C" stroke-width="0.703704" stroke-linecap="round" stroke-linejoin="round"/>
<path d="M29.6328 32.5024H33.0607V34.3312H29.6328V32.5024Z" fill="#00DBA8" stroke="#45413C" stroke-width="0.703704" stroke-linecap="round" stroke-linejoin="round"/>
<path d="M26.3873 27.7085C26.7106 27.7085 27.0207 27.837 27.2494 28.0656C27.478 28.2943 27.6065 28.6044 27.6065 28.9277V34.2556C27.1151 34.2556 26.644 34.0605 26.2965 33.713C25.9491 33.3656 25.754 32.8944 25.754 32.4031V28.3419C25.7529 28.2584 25.7686 28.1756 25.8 28.0983C25.8315 28.0209 25.8781 27.9507 25.9371 27.8917C25.9961 27.8327 26.0664 27.786 26.1437 27.7546C26.221 27.7231 26.3038 27.7075 26.3873 27.7085Z" fill="#00DBA8"/>
<path d="M26.3872 27.7085C26.3044 27.7085 26.2224 27.7249 26.146 27.7568C26.0696 27.7888 26.0003 27.8355 25.9421 27.8945C25.8839 27.9534 25.838 28.0233 25.8071 28.1001C25.7761 28.1769 25.7607 28.259 25.7618 28.3418V29.8539C25.7618 29.688 25.8277 29.529 25.9449 29.4117C26.0622 29.2944 26.2213 29.2285 26.3872 29.2285C26.7105 29.2285 27.0206 29.3569 27.2493 29.5856C27.4779 29.8142 27.6064 30.1243 27.6064 30.4477V28.9356C27.6074 28.7748 27.5766 28.6154 27.5158 28.4666C27.455 28.3178 27.3654 28.1824 27.2521 28.0684C27.1388 27.9543 27.004 27.8638 26.8556 27.8021C26.7071 27.7403 26.548 27.7085 26.3872 27.7085Z" fill="#00F5BC"/>
<path d="M26.3873 27.7085C26.7106 27.7085 27.0207 27.837 27.2494 28.0656C27.478 28.2943 27.6065 28.6044 27.6065 28.9277V34.2556C27.1151 34.2556 26.644 34.0605 26.2965 33.713C25.9491 33.3656 25.754 32.8944 25.754 32.4031V28.3419C25.7529 28.2584 25.7686 28.1756 25.8 28.0983C25.8315 28.0209 25.8781 27.9507 25.9371 27.8917C25.9961 27.8327 26.0664 27.786 26.1437 27.7546C26.221 27.7231 26.3038 27.7075 26.3873 27.7085Z" stroke="#45413C" stroke-width="0.703704" stroke-linecap="round" stroke-linejoin="round"/>
<path d="M29.3698 19.1629C29.3698 19.3603 29.4482 19.5496 29.5878 19.6891C29.7273 19.8287 29.9166 19.9071 30.114 19.9071C30.3113 19.9071 30.5006 19.8287 30.6402 19.6891C30.7797 19.5496 30.8581 19.3603 30.8581 19.1629C30.8581 18.9656 30.7797 18.7763 30.6402 18.6367C30.5006 18.4972 30.3113 18.4188 30.114 18.4188C29.9166 18.4188 29.7273 18.4972 29.5878 18.6367C29.4482 18.7763 29.3698 18.9656 29.3698 19.1629ZM29.1719 13.2017C29.1719 13.3991 29.2503 13.5883 29.3898 13.7279C29.5294 13.8675 29.7187 13.9459 29.916 13.9459C30.1134 13.9459 30.3027 13.8675 30.4422 13.7279C30.5818 13.5883 30.6602 13.3991 30.6602 13.2017C30.6602 13.0043 30.5818 12.815 30.4422 12.6755C30.3027 12.5359 30.1134 12.4575 29.916 12.4575C29.7187 12.4575 29.5294 12.5359 29.3898 12.6755C29.2503 12.815 29.1719 13.0043 29.1719 13.2017ZM31.1827 15.4659C31.1827 15.7808 31.3078 16.0828 31.5305 16.3055C31.7532 16.5282 32.0553 16.6534 32.3702 16.6534C32.6852 16.6534 32.9872 16.5282 33.2099 16.3055C33.4326 16.0828 33.5577 15.7808 33.5577 15.4659C33.5577 15.1509 33.4326 14.8489 33.2099 14.6262C32.9872 14.4035 32.6852 14.2784 32.3702 14.2784C32.0553 14.2784 31.7532 14.4035 31.5305 14.6262C31.3078 14.8489 31.1827 15.1509 31.1827 15.4659Z" fill="#E5FEFF" stroke="#45413C" stroke-width="0.703704" stroke-linecap="round" stroke-linejoin="round"/>
<path d="M26.1804 15.4136C25.1829 15.1313 24.2613 14.6293 23.4831 13.9444C22.705 13.2594 22.0902 12.4089 21.6837 11.4553L21.1929 10.2915C19.2843 12.8641 16.4678 14.6134 13.3158 15.184L11.8274 15.4532C11.4474 15.4532 11.0829 15.6041 10.8142 15.8729C10.5455 16.1416 10.3945 16.5061 10.3945 16.8861C10.3945 17.2661 10.5455 17.6306 10.8142 17.8993C11.0829 18.168 11.4474 18.319 11.8274 18.319H11.9145C12.0998 20.069 12.9261 21.6886 14.2343 22.8657C15.5426 24.0427 17.2401 24.694 18.9999 24.694C20.7598 24.694 22.4573 24.0427 23.7655 22.8657C25.0738 21.6886 25.9001 20.069 26.0854 18.319H26.1804C26.5604 18.319 26.9249 18.168 27.1936 17.8993C27.4623 17.6306 27.6133 17.2661 27.6133 16.8861C27.6133 16.5061 27.4623 16.1416 27.1936 15.8729C26.9249 15.6041 26.5604 15.4532 26.1804 15.4532V15.4136Z" fill="#FFCEBF" stroke="#45413C" stroke-width="0.703704" stroke-linecap="round" stroke-linejoin="round"/>
<path d="M16.7515 20.2646C16.7014 20.2657 16.6521 20.2776 16.607 20.2995C16.5619 20.3213 16.5221 20.3527 16.4902 20.3913C16.4571 20.4286 16.4327 20.4729 16.419 20.5208C16.4053 20.5688 16.4026 20.6192 16.411 20.6684C16.5179 21.2774 16.8361 21.8291 17.3096 22.2267C17.783 22.6243 18.3815 22.8423 18.9998 22.8423C19.6181 22.8423 20.2165 22.6243 20.69 22.2267C21.1635 21.8291 21.4816 21.2774 21.5885 20.6684C21.597 20.6192 21.5942 20.5688 21.5805 20.5208C21.5668 20.4729 21.5425 20.4286 21.5094 20.3913C21.4775 20.3527 21.4377 20.3213 21.3926 20.2995C21.3475 20.2776 21.2982 20.2657 21.2481 20.2646H16.7515Z" fill="#FF6242"/>
<path d="M18.9989 21.3774C18.2841 21.3495 17.581 21.5643 17.0039 21.987C17.2534 22.2648 17.5585 22.487 17.8995 22.6391C18.2405 22.7912 18.6097 22.8698 18.9831 22.8698C19.3564 22.8698 19.7256 22.7912 20.0666 22.6391C20.4076 22.487 20.7128 22.2648 20.9622 21.987C20.3938 21.5711 19.7029 21.3566 18.9989 21.3774Z" fill="#FFA694"/>
<path d="M16.7515 20.2646C16.7014 20.2657 16.6521 20.2776 16.607 20.2995C16.5619 20.3213 16.5221 20.3527 16.4902 20.3913C16.4571 20.4286 16.4327 20.4729 16.419 20.5208C16.4053 20.5688 16.4026 20.6192 16.411 20.6684C16.5179 21.2774 16.8361 21.8291 17.3096 22.2267C17.783 22.6243 18.3815 22.8423 18.9998 22.8423C19.6181 22.8423 20.2165 22.6243 20.69 22.2267C21.1635 21.8291 21.4816 21.2774 21.5885 20.6684C21.597 20.6192 21.5942 20.5688 21.5805 20.5208C21.5668 20.4729 21.5425 20.4286 21.5094 20.3913C21.4775 20.3527 21.4377 20.3213 21.3926 20.2995C21.3475 20.2776 21.2982 20.2657 21.2481 20.2646H16.7515Z" stroke="#45413C" stroke-width="0.703704" stroke-linecap="round" stroke-linejoin="round"/>
<path d="M13.5078 19.6288C13.5078 19.7548 13.5912 19.8756 13.7397 19.9647C13.8882 20.0538 14.0895 20.1038 14.2995 20.1038C14.5094 20.1038 14.7108 20.0538 14.8593 19.9647C15.0077 19.8756 15.0911 19.7548 15.0911 19.6288C15.0911 19.5028 15.0077 19.382 14.8593 19.2929C14.7108 19.2039 14.5094 19.1538 14.2995 19.1538C14.0895 19.1538 13.8882 19.2039 13.7397 19.2929C13.5912 19.382 13.5078 19.5028 13.5078 19.6288ZM22.9128 19.6288C22.9128 19.7548 22.9962 19.8756 23.1447 19.9647C23.2932 20.0538 23.4945 20.1038 23.7045 20.1038C23.9144 20.1038 24.1158 20.0538 24.2643 19.9647C24.4127 19.8756 24.4961 19.7548 24.4961 19.6288C24.4961 19.5028 24.4127 19.382 24.2643 19.2929C24.1158 19.2039 23.9144 19.1538 23.7045 19.1538C23.4945 19.1538 23.2932 19.2039 23.1447 19.2929C22.9962 19.382 22.9128 19.5028 22.9128 19.6288Z" fill="#FFB59E"/>
<path d="M12.668 15.0417V17.8521C12.6666 18.0466 12.7368 18.2348 12.8653 18.3808C12.9938 18.5268 13.1716 18.6204 13.3647 18.6437L16.5867 19.0475C16.8006 19.0745 17.0176 19.059 17.2255 19.0019C17.4333 18.9448 17.6279 18.8474 17.798 18.715L18.4947 18.1846C18.6517 18.0652 18.8436 18.0005 19.0409 18.0005C19.2382 18.0005 19.4301 18.0652 19.5872 18.1846L20.2838 18.715C20.4539 18.8474 20.6485 18.9448 20.8563 19.0019C21.0642 19.059 21.2812 19.0745 21.4951 19.0475L24.7172 18.6437C24.9103 18.6204 25.088 18.5268 25.2165 18.3808C25.345 18.2348 25.4152 18.0466 25.4138 17.8521V15.0417C25.4138 14.8317 25.3304 14.6303 25.1819 14.4819C25.0335 14.3334 24.8321 14.25 24.6222 14.25H13.4597C13.2497 14.25 13.0483 14.3334 12.8999 14.4819C12.7514 14.6303 12.668 14.8317 12.668 15.0417Z" fill="#00B8F0"/>
<path d="M25.3725 15.0417C25.3725 14.8317 25.2891 14.6303 25.1406 14.4819C24.9922 14.3334 24.7908 14.25 24.5808 14.25H19.3637L16.0625 19L16.5454 19.0633C16.7593 19.0903 16.9763 19.0748 17.1842 19.0177C17.392 18.9607 17.5866 18.8632 17.7567 18.7308L18.4533 18.2004C18.6104 18.081 18.8023 18.0163 18.9996 18.0163C19.1969 18.0163 19.3888 18.081 19.5458 18.2004L20.2425 18.7308C20.4126 18.8632 20.6072 18.9607 20.815 19.0177C21.0228 19.0748 21.2399 19.0903 21.4537 19.0633L24.6758 18.6596C24.8689 18.6362 25.0467 18.5426 25.1752 18.3966C25.3037 18.2506 25.3739 18.0624 25.3725 17.8679V15.0417Z" fill="#4ACFFF"/>
<path d="M12.668 15.0417V17.8521C12.6666 18.0466 12.7368 18.2348 12.8653 18.3808C12.9938 18.5268 13.1716 18.6204 13.3647 18.6437L16.5867 19.0475C16.8006 19.0745 17.0176 19.059 17.2255 19.0019C17.4333 18.9449 17.6279 18.8474 17.798 18.715L18.4947 18.1846C18.6517 18.0652 18.8436 18.0005 19.0409 18.0005C19.2382 18.0005 19.4301 18.0652 19.5872 18.1846L20.2838 18.715C20.4539 18.8474 20.6485 18.9449 20.8563 19.0019C21.0642 19.059 21.2812 19.0745 21.4951 19.0475L24.7172 18.6437C24.9103 18.6204 25.088 18.5268 25.2165 18.3808C25.345 18.2348 25.4152 18.0466 25.4138 17.8521V15.0417C25.4138 14.8317 25.3304 14.6303 25.1819 14.4819C25.0335 14.3334 24.8321 14.25 24.6222 14.25H13.4597C13.2497 14.25 13.0483 14.3334 12.8999 14.4819C12.7514 14.6303 12.668 14.8317 12.668 15.0417Z" stroke="#45413C" stroke-width="0.703704" stroke-linecap="round" stroke-linejoin="round"/>
<path d="M14.8985 16.553C14.8985 16.6736 14.9342 16.7914 15.0012 16.8917C15.0682 16.9919 15.1634 17.07 15.2748 17.1162C15.3862 17.1623 15.5087 17.1744 15.627 17.1509C15.7452 17.1273 15.8539 17.0693 15.9391 16.984C16.0244 16.8988 16.0824 16.7902 16.1059 16.6719C16.1295 16.5537 16.1174 16.4311 16.0713 16.3197C16.0251 16.2083 15.947 16.1131 15.8467 16.0461C15.7465 15.9792 15.6286 15.9434 15.5081 15.9434C15.4277 15.9423 15.348 15.9574 15.2735 15.9876C15.1991 16.0179 15.1315 16.0628 15.0747 16.1196C15.0178 16.1764 14.973 16.244 14.9427 16.3185C14.9125 16.3929 14.8974 16.4726 14.8985 16.553ZM23.1002 16.553C23.1002 16.6736 23.0644 16.7914 22.9974 16.8917C22.9304 16.9919 22.8352 17.07 22.7239 17.1162C22.6125 17.1623 22.4899 17.1744 22.3717 17.1509C22.2534 17.1273 22.1448 17.0693 22.0595 16.984C21.9743 16.8988 21.9162 16.7902 21.8927 16.6719C21.8692 16.5537 21.8813 16.4311 21.9274 16.3197C21.9735 16.2083 22.0517 16.1131 22.1519 16.0461C22.2522 15.9792 22.37 15.9434 22.4906 15.9434C22.5709 15.9423 22.6507 15.9574 22.7251 15.9876C22.7995 16.0179 22.8672 16.0628 22.924 16.1196C22.9808 16.1764 23.0257 16.244 23.0559 16.3185C23.0862 16.3929 23.1012 16.4726 23.1002 16.553Z" fill="#45413C" stroke="#45413C" stroke-width="0.703704" stroke-linecap="round" stroke-linejoin="round"/>
</svg>
