<svg width="32" height="32" viewBox="0 0 32 32" fill="none" xmlns="http://www.w3.org/2000/svg">
<g clip-path="url(#clip0_1277_3514)">
<path d="M24.8281 10.0423H7.61719C7.61514 8.46794 8.04639 6.92342 8.86371 5.57788C9.68103 4.23233 10.8529 3.13768 12.2509 2.41382L12.077 1.91146C12.0253 1.76803 12.0225 1.6115 12.0692 1.46635C12.1159 1.3212 12.2093 1.19559 12.3349 1.10917C13.4871 0.351846 14.8436 -0.0343796 16.2219 0.00247057C17.6 -0.0348237 18.9565 0.350875 20.1088 1.10767C20.2347 1.19388 20.3285 1.31939 20.3754 1.46456C20.4223 1.60973 20.4198 1.76637 20.3683 1.90996L20.1958 2.41232C21.5927 3.13783 22.7635 4.2331 23.5804 5.57862C24.3973 6.92414 24.8289 8.46819 24.8281 10.0423Z" fill="#FFEF5E"/>
<path d="M24.8281 10.0347V12.9034C24.8281 15.1857 23.9214 17.3745 22.3076 18.9884C20.6937 20.6022 18.5049 21.5088 16.2226 21.5088C13.9403 21.5088 11.7515 20.6022 10.1377 18.9884C8.52383 17.3745 7.61719 15.1857 7.61719 12.9034V10.0347" fill="#FFDDA1"/>
<path d="M16.2234 0.00247057C14.8453 -0.0348237 13.4888 0.350875 12.3364 1.10767C12.2108 1.19409 12.1174 1.3197 12.0707 1.46485C12.024 1.61 12.0268 1.76653 12.0785 1.90996L12.2509 2.41232C10.8527 3.1363 9.68066 4.23118 8.86332 5.57702C8.04598 6.92285 7.61486 8.46769 7.6172 10.0423H16.2249L16.2234 0.00247057Z" fill="#FFF9BF"/>
<path d="M26.2632 25.2639V32.9913H6.18359V25.2639C9.41061 24.1469 12.8091 23.6068 16.2234 23.6683C19.638 23.6083 23.0361 24.1482 26.2632 25.2639Z" fill="#FFEF5E"/>
<path d="M1.54905 27.6883C2.96052 26.6444 4.52311 25.8222 6.1828 25.25V32.9774H0.445347V29.9542C0.443211 29.5172 0.541644 29.0855 0.733028 28.6926C0.924413 28.2997 1.20362 27.9561 1.54905 27.6883ZM32.0013 29.9542V32.9774H26.2639V25.25C27.9236 25.8222 29.4862 26.6444 30.8976 27.6883C31.2426 27.9561 31.5214 28.2995 31.7125 28.6922C31.9036 29.0848 32.0019 29.5161 31.9998 29.9527" fill="#B2B2B2"/>
<path d="M21.8303 24.1259L16.2218 30.1183L10.6133 24.1259C12.4657 23.8088 14.3424 23.6542 16.2218 23.664C18.1012 23.6542 19.9778 23.8088 21.8303 24.1259Z" fill="#FFDDA1"/>
<path d="M26.2632 25.2602V28.9042C23.0311 27.8073 19.6363 27.2673 16.2234 27.3072C12.8109 27.2692 9.4165 27.8081 6.18359 28.9012V25.2572C9.41528 24.1595 12.8106 23.6214 16.2234 23.6662C19.6364 23.6228 23.0318 24.1609 26.2632 25.2602Z" fill="#FFF9BF"/>
<path d="M6.1828 25.253V28.897C4.5232 29.4687 2.96061 30.2905 1.54905 31.3339C1.02283 31.7449 0.657679 32.3276 0.517327 32.9804H0.445347V29.9572C0.443211 29.5202 0.541644 29.0885 0.733028 28.6956C0.924413 28.3027 1.20362 27.9591 1.54905 27.6913C2.96052 26.6474 4.52311 25.8252 6.1828 25.253ZM32.0013 29.9572V32.9804H31.9294C31.7889 32.3269 31.4232 31.7435 30.8961 31.3324C29.4847 30.2885 27.9221 29.4662 26.2624 28.894V25.25C27.9222 25.8227 29.4848 26.6454 30.8961 27.6898C31.2418 27.9577 31.5211 28.3016 31.7125 28.6948C31.9039 29.088 32.0037 29.5199 32.0013 29.9572Z" fill="#EEEEEE"/>
<path d="M21.8288 24.1275L18.7726 27.3951L18.7576 27.4101C17.9139 27.3353 17.0672 27.3003 16.2203 27.3051C15.295 27.3051 14.2528 27.3441 13.683 27.4071L13.668 27.3921L10.6133 24.123C12.4658 23.8069 14.3425 23.6533 16.2218 23.6641C18.1012 23.6543 19.9778 23.8089 21.8303 24.126" fill="#FFDDA1"/>
<path d="M13.6671 27.4058L14.4558 27.3623C14.1979 27.3743 13.94 27.3933 13.6821 27.4193C13.5096 27.4193 13.3521 27.4328 13.1797 27.4493C13.3371 27.4343 13.5096 27.4223 13.6671 27.4043M19.262 27.4508C19.0951 27.4343 18.9275 27.4248 18.7597 27.4223C18.5019 27.3959 18.2433 27.3769 17.9844 27.3653C18.2573 27.3788 18.5152 27.3953 18.7732 27.4088L19.262 27.4508Z" fill="#FFDDA1"/>
<path d="M18.3742 16.5C17.7535 16.966 16.9984 17.2179 16.2222 17.2179C15.4461 17.2179 14.691 16.966 14.0703 16.5" stroke="#191919" stroke-width="1.4996" stroke-linecap="round" stroke-linejoin="round"/>
<path d="M13.3537 13.253C13.3038 13.2575 13.2536 13.2517 13.2062 13.2357C13.1588 13.2198 13.1152 13.1941 13.0782 13.1604C13.0413 13.1267 13.0118 13.0856 12.9916 13.0399C12.9714 12.9941 12.9609 12.9446 12.9609 12.8946C12.9609 12.8445 12.9714 12.7951 12.9916 12.7493C13.0118 12.7035 13.0413 12.6625 13.0782 12.6287C13.1152 12.595 13.1588 12.5694 13.2062 12.5534C13.2536 12.5375 13.3038 12.5316 13.3537 12.5362M13.3537 13.253C13.4035 13.2575 13.4537 13.2517 13.5011 13.2357C13.5486 13.2198 13.5921 13.1941 13.6291 13.1604C13.666 13.1267 13.6956 13.0856 13.7158 13.0399C13.736 12.9941 13.7464 12.9446 13.7464 12.8946C13.7464 12.8445 13.736 12.7951 13.7158 12.7493C13.6956 12.7035 13.666 12.6625 13.6291 12.6287C13.5921 12.595 13.5486 12.5694 13.5011 12.5534C13.4537 12.5375 13.4035 12.5316 13.3537 12.5362M19.0911 13.253C19.0413 13.2575 18.9911 13.2517 18.9436 13.2357C18.8962 13.2198 18.8526 13.1941 18.8157 13.1604C18.7787 13.1267 18.7492 13.0856 18.729 13.0399C18.7088 12.9941 18.6984 12.9446 18.6984 12.8946C18.6984 12.8445 18.7088 12.7951 18.729 12.7493C18.7492 12.7035 18.7787 12.6625 18.8157 12.6287C18.8526 12.595 18.8962 12.5694 18.9436 12.5534C18.9911 12.5375 19.0413 12.5316 19.0911 12.5362M19.0911 13.253C19.1409 13.2575 19.1912 13.2517 19.2386 13.2357C19.286 13.2198 19.3296 13.1941 19.3665 13.1604C19.4035 13.1267 19.433 13.0856 19.4532 13.0399C19.4734 12.9941 19.4838 12.9446 19.4838 12.8946C19.4838 12.8445 19.4734 12.7951 19.4532 12.7493C19.433 12.7035 19.4035 12.6625 19.3665 12.6287C19.3296 12.595 19.286 12.5694 19.2386 12.5534C19.1912 12.5375 19.1409 12.5316 19.0911 12.5362" stroke="#191919" stroke-width="1.4996"/>
<path d="M10.604 24.1104L16.2214 30.1178L21.8404 24.1104M5.46484 10.0382H26.9781M12.243 2.40527C10.8479 3.13314 9.67891 4.22954 8.86327 5.57528C8.04763 6.92102 7.61651 8.4646 7.61676 10.0382V12.9084C7.61676 14.0385 7.83935 15.1575 8.27181 16.2016C8.70428 17.2457 9.33815 18.1943 10.1372 18.9934C10.9363 19.7925 11.885 20.4264 12.929 20.8588C13.9731 21.2913 15.0921 21.5139 16.2222 21.5139C17.3523 21.5139 18.4713 21.2913 19.5154 20.8588C20.5594 20.4264 21.5081 19.7925 22.3072 18.9934C23.1062 18.1943 23.7401 17.2457 24.1726 16.2016C24.605 15.1575 24.8276 14.0385 24.8276 12.9084V10.0397C24.8279 8.4661 24.3968 6.92252 23.5811 5.57678C22.7655 4.23104 21.5965 3.13464 20.2014 2.40677" stroke="#191919" stroke-width="1.4996" stroke-linecap="round" stroke-linejoin="round"/>
<path d="M17.6562 10.042L20.366 1.91416C20.4166 1.76919 20.4186 1.61163 20.3715 1.46546C20.3244 1.31929 20.2308 1.1925 20.105 1.10438C18.952 0.351861 17.5975 -0.0325202 16.2211 0.00217769C14.8453 -0.0326594 13.4914 0.351182 12.3386 1.10288C12.2129 1.191 12.1193 1.31779 12.0722 1.46396C12.0251 1.61013 12.027 1.76769 12.0777 1.91266L14.7875 10.0405M21.96 7.17175V3.6282M10.4851 7.17175V3.6282M6.18279 32.9903V25.2569M26.2639 32.9903V25.2569M16.2226 30.1201V32.9903M31.9983 32.9903V29.9686C32.0005 29.5316 31.902 29.0999 31.7107 28.707C31.5193 28.3141 31.2401 27.9705 30.8946 27.7027C28.9872 26.2406 24.4404 23.6673 16.2226 23.6673C8.0048 23.6673 3.46403 26.2496 1.54904 27.7042C1.20381 27.9718 0.92473 28.3152 0.733354 28.7078C0.541978 29.1005 0.443435 29.5318 0.44534 29.9686V32.9903" stroke="#191919" stroke-width="1.4996" stroke-linecap="round" stroke-linejoin="round"/>
</g>
<defs>
<clipPath id="clip0_1277_3514">
<rect width="32" height="32" fill="white"/>
</clipPath>
</defs>
</svg>
