<svg width="39" height="39" viewBox="0 0 39 39" fill="none" xmlns="http://www.w3.org/2000/svg">
<path fill-rule="evenodd" clip-rule="evenodd" d="M10.0759 18.3163C9.95279 18.7013 9.89029 19.103 9.89063 19.5072V24.1102C9.8907 25.0117 10.2031 25.8854 10.7747 26.5826C11.3463 27.2797 12.1417 27.7573 13.0257 27.9342L18.8757 29.1042C19.3807 29.2051 19.9006 29.2051 20.4055 29.1042L26.2555 27.9342C27.1395 27.7573 27.935 27.2797 28.5066 26.5826C29.0782 25.8854 29.3906 25.0117 29.3906 24.1102V19.5072C29.391 19.0729 29.3189 18.6415 29.1771 18.231L19.6528 21.406C19.5527 21.4395 19.4444 21.4395 19.3442 21.406L10.0759 18.3163Z" fill="#9B51E0"/>
<path d="M10.0782 18.32L10.3863 17.3952C10.2639 17.3544 10.1347 17.3383 10.0061 17.3478C9.87742 17.3574 9.75195 17.3923 9.63692 17.4507C9.52188 17.509 9.41957 17.5896 9.33591 17.6878C9.25225 17.786 9.1889 17.8998 9.14953 18.0226L10.0782 18.32ZM29.1794 18.2347L30.1008 17.9159C30.0169 17.6733 29.8406 17.4736 29.6103 17.3602C29.3801 17.2467 29.1144 17.2286 28.8709 17.3099L29.1794 18.2347ZM10.868 19.511C10.868 19.198 10.9167 18.8982 11.0064 18.6174L9.14953 18.0226C8.99571 18.5037 8.91759 19.0058 8.91797 19.511H10.868ZM10.868 24.1139V19.511H8.91797V24.1139H10.868ZM13.2192 26.9819C12.5562 26.8493 11.9596 26.491 11.531 25.9682C11.1023 25.4453 10.868 24.7901 10.868 24.1139H8.91797C8.91795 25.2409 9.30842 26.3331 10.0229 27.2047C10.7374 28.0763 11.7319 28.6729 12.837 28.8939L13.2192 26.9819ZM19.0692 28.1519L13.2192 26.9819L12.837 28.8939L18.687 30.0644L19.0692 28.1519ZM20.2168 28.1519C19.838 28.2277 19.448 28.2277 19.0692 28.1519L18.687 30.0644C19.3178 30.1901 19.9676 30.1896 20.599 30.0639L20.2168 28.1519ZM26.0668 26.9819L20.2168 28.1519L20.599 30.0639L26.449 28.8939L26.0668 26.9819ZM28.418 24.1139C28.4179 24.7901 28.1836 25.4453 27.755 25.9682C27.3263 26.491 26.7297 26.8493 26.0668 26.9819L26.449 28.8939C27.5541 28.6729 28.5485 28.0763 29.263 27.2047C29.9775 26.3331 30.368 25.2409 30.368 24.1139H28.418ZM28.418 19.511V24.1139H30.368V19.511H28.418ZM28.2581 18.5535C28.3643 18.8615 28.4184 19.1851 28.418 19.511H30.368C30.3684 18.9681 30.2781 18.429 30.1008 17.9159L28.2581 18.5535ZM28.8709 17.3099L19.3466 20.4845L19.9633 22.3346L29.4875 19.16L28.8709 17.3099ZM19.3466 20.4845C19.4467 20.4511 19.555 20.4511 19.6552 20.4845L19.0385 22.3346C19.3386 22.4346 19.6631 22.4346 19.9633 22.3346L19.3466 20.4845ZM19.6552 20.4845L10.3858 17.3952L9.76915 19.2453L19.0385 22.3346L19.6552 20.4845Z" fill="#9B51E0"/>
<path d="M19.3459 9.80086C19.4459 9.76755 19.554 9.76755 19.654 9.80086L35.6625 15.137C36.1071 15.2852 36.1071 15.9141 35.6625 16.0623L19.654 21.3985C19.554 21.4318 19.4459 21.4318 19.3459 21.3985L3.33736 16.0623C2.89276 15.9141 2.89276 15.2852 3.33736 15.137L19.3459 9.80086Z" fill="#9B51E0" stroke="#F2C94C" stroke-width="1.95" stroke-linecap="round" stroke-linejoin="round"/>
<path d="M19.0125 15.1079L7.83754 18.301C7.12455 18.5047 6.49731 18.9351 6.05074 19.5271C5.60417 20.1191 5.36257 20.8404 5.3625 21.5819V24.6142M5.3625 24.6142L4.875 30.2204M5.3625 24.6142L5.85 30.2204" stroke="#F2C94C" stroke-width="1.95" stroke-linecap="round"/>
</svg>
