<svg width="31" height="31" viewBox="0 0 31 31" fill="none" xmlns="http://www.w3.org/2000/svg">
<path d="M27.3502 12.4509C26.8937 11.9738 26.4214 11.4821 26.2434 11.0498C26.0788 10.6538 26.0691 9.9975 26.0594 9.36176C26.0412 8.17988 26.0218 6.84059 25.0906 5.90937C24.1594 4.97816 22.8201 4.95879 21.6382 4.94062C21.0025 4.93094 20.3462 4.92125 19.9502 4.75656C19.5191 4.57855 19.0262 4.10629 18.5491 3.64977C17.7136 2.84691 16.7642 1.9375 15.5 1.9375C14.2358 1.9375 13.2876 2.84691 12.4509 3.64977C11.9738 4.10629 11.4821 4.57855 11.0498 4.75656C10.6562 4.92125 9.9975 4.93094 9.36176 4.94062C8.17988 4.95879 6.84059 4.97816 5.90937 5.90937C4.97816 6.84059 4.96484 8.17988 4.94062 9.36176C4.93094 9.9975 4.92125 10.6538 4.75656 11.0498C4.57855 11.4809 4.10629 11.9738 3.64977 12.4509C2.84691 13.2864 1.9375 14.2358 1.9375 15.5C1.9375 16.7642 2.84691 17.7124 3.64977 18.5491C4.10629 19.0262 4.57855 19.5179 4.75656 19.9502C4.92125 20.3462 4.93094 21.0025 4.94062 21.6382C4.95879 22.8201 4.97816 24.1594 5.90937 25.0906C6.84059 26.0218 8.17988 26.0412 9.36176 26.0594C9.9975 26.0691 10.6538 26.0788 11.0498 26.2434C11.4809 26.4214 11.9738 26.8937 12.4509 27.3502C13.2864 28.1531 14.2358 29.0625 15.5 29.0625C16.7642 29.0625 17.7124 28.1531 18.5491 27.3502C19.0262 26.8937 19.5179 26.4214 19.9502 26.2434C20.3462 26.0788 21.0025 26.0691 21.6382 26.0594C22.8201 26.0412 24.1594 26.0218 25.0906 25.0906C26.0218 24.1594 26.0412 22.8201 26.0594 21.6382C26.0691 21.0025 26.0788 20.3462 26.2434 19.9502C26.4214 19.5191 26.8937 19.0262 27.3502 18.5491C28.1531 17.7136 29.0625 16.7642 29.0625 15.5C29.0625 14.2358 28.1531 13.2876 27.3502 12.4509ZM21.0291 13.2791L14.2479 20.0604C14.1579 20.1505 14.0511 20.2219 13.9335 20.2707C13.8159 20.3194 13.6898 20.3445 13.5625 20.3445C13.4352 20.3445 13.3091 20.3194 13.1915 20.2707C13.0739 20.2219 12.9671 20.1505 12.8771 20.0604L9.97086 17.1541C9.88085 17.0641 9.80945 16.9573 9.76074 16.8397C9.71203 16.7221 9.68696 16.596 9.68696 16.4688C9.68696 16.3415 9.71203 16.2154 9.76074 16.0978C9.80945 15.9802 9.88085 15.8734 9.97086 15.7834C10.1526 15.6016 10.3992 15.4995 10.6562 15.4995C10.7835 15.4995 10.9096 15.5245 11.0272 15.5732C11.1448 15.622 11.2516 15.6934 11.3416 15.7834L13.5625 18.0054L19.6584 11.9084C19.7484 11.8184 19.8552 11.747 19.9728 11.6982C20.0904 11.6495 20.2165 11.6245 20.3438 11.6245C20.471 11.6245 20.5971 11.6495 20.7147 11.6982C20.8323 11.747 20.9391 11.8184 21.0291 11.9084C21.1191 11.9984 21.1905 12.1052 21.2393 12.2228C21.288 12.3404 21.313 12.4665 21.313 12.5938C21.313 12.721 21.288 12.8471 21.2393 12.9647C21.1905 13.0823 21.1191 13.1891 21.0291 13.2791Z" fill="#13E633"/>
</svg>
